<?xml version="1.0" standalone="yes"?>
<svg xmlns="http://www.w3.org/2000/svg" width="128" height="128">
<path style="fill:#ffffff; stroke:none;" d="M0 0L0 29L1 29C8.25001 20.0044 19.5402 22 30 22L99 22C109.238 22 119.917 20.2121 127 29L128 29L128 0L0 0z"/>
<path style="fill:#ffdf47; stroke:none;" d="M3 25L42 58.4136L64 75L64 22C46.2565 22 19.0801 16.9298 3 25z"/>
<path style="fill:#ffd502; stroke:none;" d="M64 22L63 76C77.0012 69.8509 89.311 55.9878 101 46.2469C108.959 39.6145 118.925 33.4464 125 25C107.984 17.4388 82.4153 22 64 22z"/>
<path style="fill:#ffef23; stroke:none;" d="M123 24L124 25L123 24z"/>
<path style="fill:#feaf01; stroke:none;" d="M2 26C-4.55715 41.4748 0 66.2689 0 83C0 89.146 -1.65746 97.9246 3.34414 102.57C7.66562 106.584 14.5591 106 20 106L57 106L102 106C108.49 106 117.069 107.338 122.906 103.86C129.459 99.9559 128 91.482 128 85C128 67.7448 132.759 41.9512 126 26C109.78 33.4296 94.7041 50.6461 81 62.0802C76.992 65.4244 69.0411 74.9144 63.4244 74.6196C57.8041 74.3246 50.1421 65.0337 46 61.5864C31.956 49.8984 17.8145 35.1308 2 26z"/>
<path style="fill:#ffd502; stroke:none;" d="M3 26L4 27L3 26M4 27L5 28L4 27M7 29L8 30L7 29M8 30L9 31L8 30M9 31L10 32L9 31M10 32L11 33L10 32M13 34L14 35L13 34M14 35L15 36L14 35M15 36L16 37L15 36M16 37L17 38L16 37M19 39L20 40L19 39M20 40L21 41L20 40M21 41L22 42L21 41M22 42L23 43L22 42M25 44L26 45L25 44M26 45L27 46L26 45M27 46L28 47L27 46M28 47L29 48L28 47M31 49L32 50L31 49M32 50L33 51L32 50M33 51L34 52L33 51M34 52L35 53L34 52M36 53L37 54L36 53M37 54L38 55L37 54M38 55L39 56L38 55M39 56L40 57L39 56M42 58L43 59L42 58M43 59L44 60L43 59M44 60L45 61L44 60M45 61L46 62L45 61M48 63L49 64L48 63M49 64L50 65L49 64M50 65L51 66L50 65M51 66L52 67L51 66M54 68L55 69L54 68M55 69L56 70L55 69M56 70L57 71L56 70M57 71L58 72L57 71M60 73L61 74L60 73M61 74L62 75L61 74z"/>
<path style="fill:#ffffff; stroke:none;" d="M0 99L0 128L128 128L128 99L127 99C119.434 108.388 106.885 106 96 106L34 106C21.1475 106 10.3217 107.622 0 99z"/>
</svg>
