<?xml version="1.0" standalone="yes"?>
<svg xmlns="http://www.w3.org/2000/svg" width="128" height="128">
<path style="fill:#010101; stroke:none;" d="M0 0L0 57C30.6597 44.2522 61.8862 32.5875 93 20.9498C103.165 17.1479 117.651 7.39357 128 13L128 0L0 0z"/>
<path style="fill:#039be5; stroke:none;" d="M96 19L89 24L49 37L49 39L15 50L15 52C8.20133 51.8499 -2.09717 55.9953 2 64L8 64C13.3714 70.649 31.6976 73.907 39.0394 70.311C61.8161 59.1546 81.203 38.8306 105 30C97.6736 40.1152 85.2181 49.9949 75 57L74 61L72 60L64 70C50.4136 74.6467 49.7172 84.7998 48.7531 97C48.5507 99.561 46.681 109.222 50.1343 110.118C53.1272 110.895 59.4414 103.603 62 102L61 100L68 94L75 98L80 102L91 110C94.0344 115.353 103.235 121.333 107.497 113.931C110.935 107.959 111.412 98.6894 112.707 92C115.075 79.7592 121.923 64.4222 120 52C122.807 50.4747 122.325 45.8116 123.083 42.7778C124.708 36.2777 133.186 13.599 124 10.5C116.374 7.92729 103.984 18.6788 96 19z"/>
<path style="fill:#039de9; stroke:none;" d="M124 10L125 11L124 10M117.667 11.3333L118.333 11.6667L117.667 11.3333z"/>
<path style="fill:#01ffff; stroke:none;" d="M114 12L115 13L114 12z"/>
<path style="fill:#039de9; stroke:none;" d="M115 12L116 13L115 12M114 13L115 14L114 13M109.667 14.3333L110.333 14.6667L109.667 14.3333M108 15L109 16L108 15z"/>
<path style="fill:#0187f9; stroke:none;" d="M101 17L102 18L101 17z"/>
<path style="fill:#039de9; stroke:none;" d="M97 19L98 20L97 19M94.6667 20.3333L95.3333 20.6667L94.6667 20.3333M91 21L92 22L91 21z"/>
<path style="fill:#0187f9; stroke:none;" d="M88 22L89 23L88 22z"/>
<path style="fill:#039de9; stroke:none;" d="M86 23L87 24L86 23M88 23L89 24L88 23M127 23L128 24L127 23M83.6667 24.3333L84.3333 24.6667L83.6667 24.3333z"/>
<path style="fill:#010101; stroke:none;" d="M127 24C123.924 47.8158 116.982 71.4658 112.199 95C110.991 100.944 110.292 115.326 102.981 117.044C99.053 117.967 94.9044 114.238 92 112.115C84.3117 106.495 76.2458 101.18 69 95L68 95C62.3399 100.66 55.9031 108.787 48 111C48 102.539 46.6681 88.4761 50.9383 81.0008C62.8128 60.2132 91.1444 49.6566 105 30C87.4282 35.5625 69.5057 50.7239 54 60.6921C48.1896 64.4275 40.879 71.0773 34 72.4074C25.0775 74.1326 7.9045 65.995 0 62L0 128L128 128L128 56L127 24z"/>
<path style="fill:#039de9; stroke:none;" d="M78 26L79 27L78 26M126.333 26.6667L126.667 27.3333L126.333 26.6667M75 27L76 28L75 27M73.6667 28.3333L74.3333 28.6667L73.6667 28.3333M70 29L71 30L70 29z"/>
<path style="fill:#01ffff; stroke:none;" d="M67 30L68 31L67 30z"/>
<path style="fill:#039de9; stroke:none;" d="M100 31L101 32L100 31z"/>
<path style="fill:#0187f9; stroke:none;" d="M104 31L105 32L104 31z"/>
<path style="fill:#039de9; stroke:none;" d="M62.6667 32.3333L63.3333 32.6667L62.6667 32.3333z"/>
<path style="fill:#0187f9; stroke:none;" d="M99 32L100 33L99 32z"/>
<path style="fill:#039de9; stroke:none;" d="M125 32L126 33L125 32M60.6667 33.3333L61.3333 33.6667L60.6667 33.3333M97 33L98 34L97 33M102 33L103 34L102 33z"/>
<path style="fill:#0187f9; stroke:none;" d="M54 35L55 36L54 35z"/>
<path style="fill:#039de9; stroke:none;" d="M94 35L95 36L94 35M100 35L101 36L100 35M50 37L51 38L50 37M98 37L99 38L98 37z"/>
<path style="fill:#0187f9; stroke:none;" d="M124 37L125 38L124 37z"/>
<path style="fill:#039de9; stroke:none;" d="M48 38L49 39L48 38M89 38L90 39L89 38M95.6667 39.3333L96.3333 39.6667L95.6667 39.3333z"/>
<path style="fill:#0187f9; stroke:none;" d="M41 40L42 41L41 40z"/>
<path style="fill:#039de9; stroke:none;" d="M86 40L87 41L86 40M93 41L94 42L93 41M123 41L124 42L123 41M36.6667 42.3333L37.3333 42.6667L36.6667 42.3333M83 42L84 43L83 42M92 42L93 43L92 42M91 43L92 44L91 43M31 44L32 45L31 44M122 44L123 45L122 44M28 45L29 46L28 45M78 45L79 46L78 45M27 46L28 47L27 46M76 46L77 47L76 46M122 46L123 47L122 46M23 47L24 48L23 47M75 47L76 48L75 47M85 48L86 49L85 48M18 49L19 50L18 49M16 50L17 51L16 50M70 50L71 51L70 50M84 50L85 51L84 50M121 50L122 51L121 50M14 51L15 52L14 51M68 51L69 52L68 51M82 51L83 52L82 51M10 52L11 53L10 52M67 52L68 53L67 52M120.333 52.6667L120.667 53.3333L120.333 52.6667z"/>
<path style="fill:#0187f9; stroke:none;" d="M7 53L8 54L7 53z"/>
<path style="fill:#039de9; stroke:none;" d="M5 54L6 55L5 54M62 55L63 56L62 55z"/>
<path style="fill:#0187f9; stroke:none;" d="M1 56L0 58L1 56z"/>
<path style="fill:#01ffff; stroke:none;" d="M76 56L77 57L76 56z"/>
<path style="fill:#039de9; stroke:none;" d="M1 57L2 58L1 57M57 58L58 59L57 58M74.6667 58.3333L75.3333 58.6667L74.6667 58.3333M73.3333 59.6667L73.6667 60.3333L73.3333 59.6667M119 59L120 60L119 59M1 62L2 63L1 62M70 62L71 63L70 62M3 63L4 64L3 63M118.333 63.6667L118.667 64.3333L118.333 63.6667M4 64L5 65L4 64M6.66667 64.3333L7.33333 64.6667L6.66667 64.3333z"/>
<path style="fill:#01ffff; stroke:none;" d="M48 64L49 65L48 64M66 65L67 66L66 65z"/>
<path style="fill:#039de9; stroke:none;" d="M11 66L12 67L11 66M43 66L44 67L43 66M65 66L66 67L65 66M14.6667 67.3333L15.3333 67.6667L14.6667 67.3333M117.333 67.6667L117.667 68.3333L117.333 67.6667M17 68L18 69L17 68z"/>
<path style="fill:#0187f9; stroke:none;" d="M20 69L21 70L20 69z"/>
<path style="fill:#01ffff; stroke:none;" d="M40 69L41 70L40 69z"/>
<path style="fill:#039de9; stroke:none;" d="M62.6667 69.3333L63.3333 69.6667L62.6667 69.3333M24 70L25 71L24 70M61 70L62 71L61 70z"/>
<path style="fill:#01ffff; stroke:none;" d="M117 70L118 71L117 70z"/>
<path style="fill:#039de9; stroke:none;" d="M27 71L28 72L27 71M35 71L35 73L37 71L35 71z"/>
<path style="fill:#01ffff; stroke:none;" d="M56 74L57 75L56 74z"/>
<path style="fill:#039de9; stroke:none;" d="M55.6667 75.3333L56.3333 75.6667L55.6667 75.3333M51 79L52 80L51 79M114 82L115 83L114 82z"/>
<path style="fill:#01ffff; stroke:none;" d="M114 84L115 85L114 84z"/>
<path style="fill:#039de9; stroke:none;" d="M49 85L50 86L49 85M112 90L112 93L113 93L112 90M68 94L69 95L68 94M67 95L68 96L67 95M65 97L66 98L65 97z"/>
<path style="fill:#01ffff; stroke:none;" d="M71 97L72 98L71 97z"/>
<path style="fill:#039de9; stroke:none;" d="M48 98L49 99L48 98M64 98L65 99L64 98M74.3333 98.6667L74.6667 99.3333L74.3333 98.6667z"/>
<path style="fill:#0187f9; stroke:none;" d="M111 98L112 99L111 98z"/>
<path style="fill:#039de9; stroke:none;" d="M63 99L64 100L63 99M61 100L62 101L61 100z"/>
<path style="fill:#0187f9; stroke:none;" d="M62 100L63 101L62 100z"/>
<path style="fill:#039de9; stroke:none;" d="M48 101L48 105L49 105L48 101z"/>
<path style="fill:#0187f9; stroke:none;" d="M60 102L61 103L60 102z"/>
<path style="fill:#039de9; stroke:none;" d="M79 102L80 103L79 102M110 102L111 103L110 102z"/>
<path style="fill:#0187f9; stroke:none;" d="M59 103L60 104L59 103z"/>
<path style="fill:#039de9; stroke:none;" d="M80 103L81 104L80 103z"/>
<path style="fill:#01ffff; stroke:none;" d="M58 104L59 105L58 104z"/>
<path style="fill:#039de9; stroke:none;" d="M56 105L57 106L56 105z"/>
<path style="fill:#0187f9; stroke:none;" d="M82 105L83 106L82 105z"/>
<path style="fill:#039de9; stroke:none;" d="M109.333 105.667L109.667 106.333L109.333 105.667M55 106L56 107L55 106M54 107L55 108L54 107M85.6667 107.333L86.3333 107.667L85.6667 107.333M52 109L53 110L52 109M48 110L49 111L48 110M90 110L91 111L90 110M108 110L109 111L108 110M93.6667 113.333L94.3333 113.667L93.6667 113.333M107 114L108 115L107 114M96 115L97 116L96 115z"/>
</svg>
